<svg preserveAspectRatio="xMidYMid meet" width="100%" height="100%" overflow="visible" style="display: block;" viewBox="0 0 10.1383 10.1367" fill="none" xmlns="http://www.w3.org/2000/svg">
<path id="Vector (Stroke)" fill-rule="evenodd" clip-rule="evenodd" d="M0.183017 0.1831C0.427072 -0.0610008 0.8228 -0.061038 1.0669 0.183017L5.06917 4.18453L9.07143 0.183017C9.31553 -0.061038 9.71126 -0.0610008 9.95532 0.1831C10.1994 0.4272 10.1993 0.822928 9.95523 1.06698L5.95313 5.06833L9.95523 9.06968C10.1993 9.31374 10.1994 9.70947 9.95532 9.95357C9.71126 10.1977 9.31553 10.1977 9.07143 9.95365L5.06917 5.95213L1.0669 9.95365C0.8228 10.1977 0.427072 10.1977 0.183017 9.95357C-0.061038 9.70947 -0.0610008 9.31374 0.1831 9.06968L4.1852 5.06833L0.1831 1.06698C-0.0610008 0.822928 -0.061038 0.4272 0.183017 0.1831Z" fill="var(--fill-0, #A7A5A5)"/>
</svg>
