<svg preserveAspectRatio="xMidYMid meet" width="100%" height="100%" overflow="visible" style="display: block;" viewBox="0 0 12.166 12.164" fill="none" xmlns="http://www.w3.org/2000/svg">
<path id="Vector (Stroke)" fill-rule="evenodd" clip-rule="evenodd" d="M0.21962 0.21972C0.512486 -0.073201 0.98736 -0.0732456 1.28028 0.21962L6.083 5.02144L10.8857 0.21962C11.1786 -0.0732456 11.6535 -0.073201 11.9464 0.21972C12.2392 0.51264 12.2392 0.987514 11.9463 1.28038L7.14376 6.082L11.9463 10.8836C12.2392 11.1765 12.2392 11.6514 11.9464 11.9443C11.6535 12.2372 11.1786 12.2372 10.8857 11.9444L6.083 7.14256L1.28028 11.9444C0.98736 12.2372 0.512486 12.2372 0.21962 11.9443C-0.0732456 11.6514 -0.073201 11.1765 0.21972 10.8836L5.02224 6.082L0.21972 1.28038C-0.073201 0.987514 -0.0732456 0.51264 0.21962 0.21972Z" fill="var(--fill-0, #7D7C7C)"/>
</svg>
