<svg preserveAspectRatio="xMidYMid meet" width="100%" height="100%" overflow="visible" style="display: block;" viewBox="0 0 18.0358 2.80921" fill="none" xmlns="http://www.w3.org/2000/svg">
<g id="Vector (Stroke)">
<path d="M2.80921 1.40461C2.80921 2.18035 2.18035 2.80921 1.40461 2.80921C0.628864 2.80921 0 2.18035 0 1.40461C0 0.628864 0.628864 0 1.40461 0C2.18035 0 2.80921 0.628864 2.80921 1.40461Z" fill="var(--fill-0, #7D7C7C)"/>
<path d="M10.4225 1.40461C10.4225 2.18035 9.79363 2.80921 9.01789 2.80921C8.24215 2.80921 7.61328 2.18035 7.61328 1.40461C7.61328 0.628864 8.24215 0 9.01789 0C9.79363 0 10.4225 0.628864 10.4225 1.40461Z" fill="var(--fill-0, #7D7C7C)"/>
<path d="M18.0358 1.40461C18.0358 2.18035 17.4069 2.80921 16.6312 2.80921C15.8554 2.80921 15.2266 2.18035 15.2266 1.40461C15.2266 0.628864 15.8554 0 16.6312 0C17.4069 0 18.0358 0.628864 18.0358 1.40461Z" fill="var(--fill-0, #7D7C7C)"/>
</g>
</svg>
