<svg preserveAspectRatio="xMidYMid meet" width="100%" height="100%" overflow="visible" style="display: block;" viewBox="0 0 17.5 19.5" fill="none" xmlns="http://www.w3.org/2000/svg">
<g id="Vector (Stroke)">
<path d="M10.75 1.5C11.1642 1.5 11.5 1.16421 11.5 0.75C11.5 0.335787 11.1642 0 10.75 0H6.75C6.33579 0 6 0.335786 6 0.75C6 1.16421 6.33579 1.5 6.75 1.5L10.75 1.5Z" fill="var(--fill-0, #A7A5A5)"/>
<path d="M17.5 3.75C17.5 4.16421 17.1642 4.5 16.75 4.5L0.75 4.5C0.335785 4.5 0 4.16421 0 3.75C0 3.33579 0.335785 3 0.75 3L16.75 3C17.1642 3 17.5 3.33579 17.5 3.75Z" fill="var(--fill-0, #A7A5A5)"/>
<path d="M2.75 7C3.16421 7 3.5 7.33579 3.5 7.75V16.75C3.5 17.4404 4.05964 18 4.75 18H12.75C13.4404 18 14 17.4404 14 16.75V7.75C14 7.33579 14.3358 7 14.75 7C15.1642 7 15.5 7.33579 15.5 7.75V16.75C15.5 18.2688 14.2688 19.5 12.75 19.5H4.75C3.23122 19.5 2 18.2688 2 16.75V7.75C2 7.33579 2.33579 7 2.75 7Z" fill="var(--fill-0, #A7A5A5)"/>
<path d="M6.75 9C7.16421 9 7.5 9.33579 7.5 9.75V14.75C7.5 15.1642 7.16421 15.5 6.75 15.5C6.33579 15.5 6 15.1642 6 14.75V9.75C6 9.33579 6.33579 9 6.75 9Z" fill="var(--fill-0, #A7A5A5)"/>
<path d="M11.5 9.75C11.5 9.33579 11.1642 9 10.75 9C10.3358 9 10 9.33579 10 9.75V14.75C10 15.1642 10.3358 15.5 10.75 15.5C11.1642 15.5 11.5 15.1642 11.5 14.75V9.75Z" fill="var(--fill-0, #A7A5A5)"/>
</g>
</svg>
