<svg preserveAspectRatio="none" width="100%" height="100%" overflow="visible" style="display: block;" viewBox="0 0 24 24" fill="none" xmlns="http://www.w3.org/2000/svg">
<g id="action-close">
<path id="Vector (Stroke)" fill-rule="evenodd" clip-rule="evenodd" d="M6.13662 6.11572C6.42949 5.8228 6.90436 5.82275 7.19728 6.11562L12 10.9174L16.8027 6.11562C17.0956 5.82275 17.5705 5.8228 17.8634 6.11572C18.1562 6.40864 18.1562 6.88351 17.8633 7.17638L13.0608 11.978L17.8633 16.7796C18.1562 17.0725 18.1562 17.5474 17.8634 17.8403C17.5705 18.1332 17.0956 18.1332 16.8027 17.8404L12 13.0386L7.19728 17.8404C6.90436 18.1332 6.42949 18.1332 6.13662 17.8403C5.84375 17.5474 5.8438 17.0725 6.13672 16.7796L10.9392 11.978L6.13672 7.17638C5.8438 6.88351 5.84375 6.40864 6.13662 6.11572Z" fill="var(--fill-0, #A7A5A5)"/>
</g>
</svg>
