<svg preserveAspectRatio="none" width="100%" height="100%" overflow="visible" style="display: block;" viewBox="0 0 24 24" fill="none" xmlns="http://www.w3.org/2000/svg">
<g id="action-select-all">
<path id="Vector (Stroke)" fill-rule="evenodd" clip-rule="evenodd" d="M11.5566 21.3066C13.6277 21.3066 15.3066 19.6277 15.3066 17.5566V12.4434C15.3066 10.3723 13.6277 8.69336 11.5566 8.69336H6.44336C4.37229 8.69336 2.69336 10.3723 2.69336 12.4434V17.5566C2.69336 19.6277 4.37229 21.3066 6.44336 21.3066H11.5566ZM13.8066 17.5566C13.8066 18.7993 12.7993 19.8066 11.5566 19.8066H6.44336C5.20072 19.8066 4.19336 18.7993 4.19336 17.5566V12.4434C4.19336 11.2007 5.20072 10.1934 6.44336 10.1934H11.5566C12.7993 10.1934 13.8066 11.2007 13.8066 12.4434V17.5566ZM19.8066 11.5566C19.8066 12.7993 18.7993 13.8066 17.5566 13.8066H17.5047C17.0905 13.8066 16.7547 14.1424 16.7547 14.5566C16.7547 14.9709 17.0905 15.3066 17.5047 15.3066H17.5566C19.6277 15.3066 21.3066 13.6277 21.3066 11.5566V6.44336C21.3066 4.37229 19.6277 2.69336 17.5566 2.69336H12.4434C10.3723 2.69336 8.69336 4.37229 8.69336 6.44336V6.51011C8.69336 6.92432 9.02915 7.26011 9.44336 7.26011C9.85757 7.26011 10.1934 6.92432 10.1934 6.51011V6.44336C10.1934 5.20072 11.2007 4.19336 12.4434 4.19336H17.5566C18.7993 4.19336 19.8066 5.20072 19.8066 6.44336V11.5566ZM12.0632 13.5581C12.3554 13.2645 12.3542 12.7897 12.0607 12.4975C11.7671 12.2053 11.2922 12.2064 11 12.5L8.29708 16.1814L7.00005 15C6.70776 14.7065 6.23289 14.7055 5.93939 14.9978C5.6459 15.2901 5.64492 15.765 5.93721 16.0585L7.76583 17.7737C7.9066 17.915 8.09788 17.9945 8.29737 17.9944C8.49686 17.9944 8.68812 17.9149 8.82884 17.7735L12.0632 13.5581Z" fill="var(--fill-0, #A7A5A5)"/>
</g>
</svg>
