<svg preserveAspectRatio="none" width="100%" height="100%" overflow="visible" style="display: block;" viewBox="0 0 12.345 10.7717" fill="none" xmlns="http://www.w3.org/2000/svg">
<path id="Vector (Stroke)" fill-rule="evenodd" clip-rule="evenodd" d="M5.82778 0.183058C6.07185 0.427136 6.07185 0.822864 5.82778 1.06694L2.13388 4.76083H11.72C12.0652 4.76083 12.345 5.04066 12.345 5.38583C12.345 5.73101 12.0652 6.01083 11.72 6.01083H2.13388L5.82778 9.70472C6.07185 9.9488 6.07185 10.3445 5.82778 10.5886C5.5837 10.8327 5.18797 10.8327 4.94389 10.5886L0.183058 5.82777C0.065848 5.71056 0 5.55159 0 5.38583C0 5.22007 0.065848 5.0611 0.183058 4.94389L4.94389 0.183058C5.18797 -0.0610194 5.5837 -0.0610194 5.82778 0.183058Z" fill="var(--fill-0, #A7A5A5)"/>
</svg>
