<svg preserveAspectRatio="none" width="100%" height="100%" overflow="visible" style="display: block;" viewBox="0 0 15.4167 14.0997" fill="none" xmlns="http://www.w3.org/2000/svg">
<path id="Vector (Stroke)" fill-rule="evenodd" clip-rule="evenodd" d="M0 3.30357C0 1.47893 1.47893 0 3.30357 0H12.1131C13.9377 0 15.4167 1.47893 15.4167 3.30357V7.41233C15.4167 9.23697 13.9377 10.7159 12.1131 10.7159H8.65617L4.90315 13.9401C4.70761 14.1081 4.43222 14.147 4.19779 14.0398C3.96335 13.9326 3.81269 13.6988 3.81188 13.441L3.80337 10.7159H3.30357C1.47893 10.7159 0 9.23697 0 7.41233V3.30357ZM3.30357 1.32143C2.20874 1.32143 1.32143 2.20874 1.32143 3.30357V7.41233C1.32143 8.50717 2.20874 9.39448 3.30357 9.39448H4.46202C4.82612 9.39448 5.1216 9.68903 5.12273 10.0531L5.12883 12.0041L7.98078 9.55402C8.10061 9.45108 8.25336 9.39448 8.41133 9.39448H12.1131C13.2079 9.39448 14.0952 8.50717 14.0952 7.41233V3.30357C14.0952 2.20874 13.2079 1.32143 12.1131 1.32143H3.30357Z" fill="var(--fill-0, #A7A5A5)"/>
</svg>
