<svg preserveAspectRatio="none" width="100%" height="100%" overflow="visible" style="display: block;" viewBox="0 0 20 20" fill="none" xmlns="http://www.w3.org/2000/svg">
<path id="Vector (Stroke)" fill-rule="evenodd" clip-rule="evenodd" d="M10 1.53846C5.32682 1.53846 1.53846 5.32682 1.53846 10C1.53846 14.6732 5.32682 18.4615 10 18.4615C14.6732 18.4615 18.4615 14.6732 18.4615 10C18.4615 5.32682 14.6732 1.53846 10 1.53846ZM0 10C0 4.47715 4.47715 0 10 0C15.5228 0 20 4.47715 20 10C20 15.5228 15.5228 20 10 20C4.47715 20 0 15.5228 0 10ZM10 4.77235C10.4248 4.77235 10.7692 5.11674 10.7692 5.54158V9.50934L13.4024 10.7336C13.7876 10.9127 13.9547 11.3702 13.7756 11.7554C13.5965 12.1407 13.139 12.3078 12.7538 12.1287L9.67569 10.6975C9.40433 10.5714 9.23077 10.2993 9.23077 10V5.54158C9.23077 5.11674 9.57517 4.77235 10 4.77235Z" fill="var(--fill-0, #A7A5A5)"/>
</svg>
