<svg preserveAspectRatio="none" width="100%" height="100%" overflow="visible" style="display: block;" viewBox="0 0 18 18" fill="none" xmlns="http://www.w3.org/2000/svg">
<g id="clubCoin">
<path id="&#208;&#154;" d="M6.408 14.3307C6.408 14.832 6.17333 15.0827 5.704 15.0827C5.23467 15.0827 5 14.832 5 14.3307V4.25066C5 3.74932 5.23467 3.49866 5.704 3.49866C6.17333 3.49866 6.408 3.74932 6.408 4.25066V8.41066L11.288 3.94666C11.608 3.64799 11.864 3.49866 12.056 3.49866C12.4613 3.49866 12.664 3.70132 12.664 4.10666C12.664 4.36266 12.568 4.57599 12.376 4.74666L7.704 8.95466L12.808 13.8827C13 14.064 13.096 14.256 13.096 14.4587C13.096 14.6293 13.032 14.7733 12.904 14.8907C12.7653 15.0187 12.6 15.0827 12.408 15.0827C12.1627 15.0827 11.9333 14.9813 11.72 14.7787L6.408 9.56266V14.3307Z" fill="var(--fill-0, #333333)"/>
</g>
</svg>
