<svg preserveAspectRatio="none" width="100%" height="100%" overflow="visible" style="display: block;" viewBox="0 0 47 47" fill="none" xmlns="http://www.w3.org/2000/svg">
<g id="Frame 1230">
<path id="Ellipse " d="M23.5 2C35.3741 2 45 11.6259 45 23.5C45 35.3741 35.3741 45 23.5 45C11.6259 45 2 35.3741 2 23.5C2 11.6259 11.6259 2 23.5 2Z" fill="var(--fill-0, #333333)" stroke="var(--stroke-0, #FFA319)" stroke-width="4"/>
<path id="Union" fill-rule="evenodd" clip-rule="evenodd" d="M32.1656 32.2781C32.1656 31.7907 32.0268 31.3501 31.7481 30.9644C31.4941 30.6126 31.202 30.2524 30.8722 29.8838L24.0848 22.7878L29.6571 17.299L29.6584 17.2978C30.1408 16.8153 30.514 16.3943 30.7729 16.0358L30.7778 16.0284C31.0308 15.6489 31.1615 15.2407 31.1615 14.808C31.1615 14.1153 30.917 13.5344 30.4252 13.0853L30.4209 13.0816C29.9391 12.6626 29.3777 12.4502 28.7464 12.4502C28.3107 12.4502 27.9227 12.5436 27.5926 12.7416L27.5833 12.7478C27.2884 12.9445 27.0514 13.1381 26.8804 13.3299L19.8877 20.7833V14.8654C19.8877 14.1258 19.6596 13.5213 19.1797 13.085C18.7108 12.6588 18.1265 12.4502 17.4439 12.4502C16.7209 12.4502 16.1202 12.6797 15.6674 13.154C15.2217 13.6209 15 14.1964 15 14.8654V32.192C15 32.898 15.231 33.4814 15.708 33.915C16.1769 34.3412 16.7612 34.5498 17.4439 34.5498C18.1669 34.5498 18.7675 34.3203 19.2203 33.846C19.663 33.3822 19.8877 32.8271 19.8877 32.192V25.1345L27.2252 33.0972L27.2283 33.1003C27.653 33.5443 28.0261 33.889 28.3463 34.1293C28.7154 34.4112 29.1487 34.5498 29.6356 34.5498C30.2938 34.5498 30.8787 34.3639 31.3806 33.9884C31.9141 33.6091 32.1656 33.0223 32.1656 32.2781Z" fill="var(--fill-0, white)"/>
</g>
</svg>
