<svg preserveAspectRatio="none" width="100%" height="100%" overflow="visible" style="display: block;" viewBox="0 0 12 12.75" fill="none" xmlns="http://www.w3.org/2000/svg">
<path id="Union" fill-rule="evenodd" clip-rule="evenodd" d="M3.75 0C3.33579 0 3 0.335787 3 0.75V4.5H0.75C0.335787 4.5 0 4.83579 0 5.25C0 5.66422 0.335787 6 0.75 6H3V7.5H0.75C0.335787 7.5 0 7.83578 0 8.25C0 8.66422 0.335787 9 0.75 9H3V12C3 12.4142 3.33579 12.75 3.75 12.75H7.63499C10.0457 12.75 12 10.9032 12 8.625C12 6.34682 10.0457 4.5 7.63499 4.5H4.5V1.5H10.45C10.8642 1.5 11.2 1.16421 11.2 0.75C11.2 0.335787 10.8642 0 10.45 0H3.75ZM10.4 8.625C10.4 10.0747 9.22743 11.25 7.78099 11.25H4.5V9H5.65C6.06421 9 6.4 8.66422 6.4 8.25C6.4 7.83578 6.06421 7.5 5.65 7.5H4.5V6H7.78099C9.22743 6 10.4 7.17525 10.4 8.625Z" fill="var(--fill-0, #333333)"/>
</svg>
