<svg preserveAspectRatio="none" width="100%" height="100%" overflow="visible" style="display: block;" viewBox="0 0 16.6667 16.6667" fill="none" xmlns="http://www.w3.org/2000/svg">
<path id="Vector (Stroke)" fill-rule="evenodd" clip-rule="evenodd" d="M8.33333 1.28205C4.43902 1.28205 1.28205 4.43902 1.28205 8.33333C1.28205 12.2276 4.43902 15.3846 8.33333 15.3846C12.2276 15.3846 15.3846 12.2276 15.3846 8.33333C15.3846 4.43902 12.2276 1.28205 8.33333 1.28205ZM0 8.33333C0 3.73096 3.73096 0 8.33333 0C12.9357 0 16.6667 3.73096 16.6667 8.33333C16.6667 12.9357 12.9357 16.6667 8.33333 16.6667C3.73096 16.6667 0 12.9357 0 8.33333ZM8.66969 4.71263C8.97107 4.89839 9.06479 5.2933 8.87902 5.59468L8.87728 5.5975C8.69151 5.89888 8.29661 5.9926 7.99523 5.80683C7.69386 5.62106 7.60014 5.22616 7.7859 4.92478L7.78764 4.92196C7.97341 4.62058 8.36832 4.52686 8.66969 4.71263ZM6.1427 8.18405C6.1427 7.83002 6.4297 7.54302 6.78373 7.54302H8.33315C8.68718 7.54302 8.97418 7.83002 8.97418 8.18405V11.4127C8.97418 11.7668 8.68718 12.0538 8.33315 12.0538C7.97913 12.0538 7.69213 11.7668 7.69213 11.4127V8.82507H6.78373C6.4297 8.82507 6.1427 8.53808 6.1427 8.18405Z" fill="var(--fill-0, #7D7C7C)"/>
</svg>
