<svg preserveAspectRatio="none" width="100%" height="100%" overflow="visible" style="display: block;" viewBox="0 0 19.3333 20.5417" fill="none" xmlns="http://www.w3.org/2000/svg">
<path id="Union" fill-rule="evenodd" clip-rule="evenodd" d="M6.04167 0C5.37432 0 4.83333 0.54099 4.83333 1.20833V7.25H1.20833C0.54099 7.25 0 7.79099 0 8.45833C0 9.12569 0.54099 9.66667 1.20833 9.66667H4.83333V12.0833H1.20833C0.54099 12.0833 0 12.6243 0 13.2917C0 13.959 0.54099 14.5 1.20833 14.5H4.83333V19.3333C4.83333 20.0007 5.37432 20.5417 6.04167 20.5417H12.3008C16.1848 20.5417 19.3333 17.5662 19.3333 13.8958C19.3333 10.2254 16.1848 7.25 12.3008 7.25H7.25V2.41667H16.8361C17.5035 2.41667 18.0444 1.87568 18.0444 1.20833C18.0444 0.54099 17.5035 0 16.8361 0H6.04167ZM16.7556 13.8958C16.7556 16.2315 14.8664 18.125 12.536 18.125H7.25V14.5H9.10278C9.77012 14.5 10.3111 13.959 10.3111 13.2917C10.3111 12.6243 9.77012 12.0833 9.10278 12.0833H7.25V9.66667H12.536C14.8664 9.66667 16.7556 11.5601 16.7556 13.8958Z" fill="var(--fill-0, white)"/>
</svg>
