<svg preserveAspectRatio="none" width="100%" height="100%" overflow="visible" style="display: block;" viewBox="0 0 13.3665 13.3657" fill="none" xmlns="http://www.w3.org/2000/svg">
<path id="Vector (Stroke)" fill-rule="evenodd" clip-rule="evenodd" d="M5.6835 1.125C3.16591 1.125 1.125 3.16591 1.125 5.6835C1.125 8.20109 3.16591 10.242 5.6835 10.242C8.20109 10.242 10.242 8.20109 10.242 5.6835C10.242 3.16591 8.20109 1.125 5.6835 1.125ZM0 5.6835C0 2.54459 2.54459 0 5.6835 0C8.82241 0 11.367 2.54459 11.367 5.6835C11.367 7.05018 10.8846 8.3042 10.0808 9.28457L13.2017 12.4055C13.4214 12.6252 13.4214 12.9813 13.2017 13.201C12.9821 13.4207 12.6259 13.4207 12.4063 13.201L9.28539 10.0801C8.3049 10.8843 7.05057 11.367 5.6835 11.367C2.54459 11.367 0 8.82241 0 5.6835Z" fill="var(--fill-0, #A7A5A5)"/>
</svg>
